<svg xmlns="http://www.w3.org/2000/svg" xmlns:xlink="http://www.w3.org/1999/xlink" width="75.634" height="61.374" viewBox="0 0 75.634 61.374">
  <defs>
    <linearGradient id="linear-gradient" x1="0.5" x2="0.5" y2="1" gradientUnits="objectBoundingBox">
      <stop offset="0" stop-color="#a82dec"/>
      <stop offset="1" stop-color="#0eddb2"/>
    </linearGradient>
  </defs>
  <g id="art" transform="translate(0 -40.723)">
    <path id="Tracé_319" data-name="Tracé 319" d="M74.106,42.667a1.05,1.05,0,0,0-1.832-.224c-1.327,1.861-3.069,2.481-5.087,3.2a19.016,19.016,0,0,0-5.128,2.484c-2.571,1.846-3.748,4.363-3.161,6.748l-.063.08A34.5,34.5,0,0,0,55.36,50.67a32.476,32.476,0,0,0-22.115-9.928c-.365-.013-.736-.019-1.1-.019a32.079,32.079,0,0,0-24.3,11.348A31.932,31.932,0,0,0,.359,77.693c.117.761.263,1.531.435,2.287C3.07,90,8.882,97.615,16.739,100.883a15.094,15.094,0,0,0,5.806,1.214,12.922,12.922,0,0,0,11.405-6.984,15.106,15.106,0,0,0,1.814-5.191,12.532,12.532,0,0,0-.053-3.076,11.57,11.57,0,0,1-.045-2.992,4.009,4.009,0,0,1,4.21-3.6,6.493,6.493,0,0,1,1.971.317c-.774,1.42-1.477,2.776-2.092,4.033a40.947,40.947,0,0,0-2.67,6.555c-.29,1.04-1.06,3.8.818,5.106a2.807,2.807,0,0,0,2.139.413c.709-.132,2.866-.532,9-7.51,1.645-1.873,3.418-4.04,5.271-6.442a14.275,14.275,0,0,0,9.438-10.17,14.987,14.987,0,0,0,.3-3.644c1.781-2.752,3.343-5.32,4.915-8.081.03-.053.06-.11.089-.168a8.664,8.664,0,0,0,5.4-4.883C76.139,52.157,76.015,47.5,74.106,42.667ZM48.391,59.827a4.479,4.479,0,1,1,.578-3.379A4.459,4.459,0,0,1,48.391,59.827ZM54.2,67.942c2.265-3.337,4.659-6.653,6.934-9.6a12.28,12.28,0,0,0,1.228.968,9.437,9.437,0,0,0,2.3,1.183c-1.92,3.284-3.985,6.538-6.486,10.221A168.117,168.117,0,0,1,46.158,86.542a46.377,46.377,0,0,1-5.195,5.224,46.871,46.871,0,0,1,2.955-6.784A168.638,168.638,0,0,1,54.2,67.942Zm-39.759-.029a4.479,4.479,0,1,1,3.8-2.093A4.465,4.465,0,0,1,14.446,67.913Zm-4.7,9.863a4.479,4.479,0,1,1-.578,3.379A4.459,4.459,0,0,1,9.75,77.777ZM24.1,51.174a4.48,4.48,0,1,1-.577,3.379A4.46,4.46,0,0,1,24.1,51.174Z" transform="translate(0)" fill="url(#linear-gradient)"/>
  </g>
</svg>
