<svg xmlns="http://www.w3.org/2000/svg" xmlns:xlink="http://www.w3.org/1999/xlink" width="2906.937" height="1785.073" viewBox="0 0 2906.937 1785.073">
  <defs>
    <linearGradient id="linear-gradient" x1="0.5" y1="0.008" x2="0.5" y2="0.998" gradientUnits="objectBoundingBox">
      <stop offset="0" stop-color="#e09b3d"/>
      <stop offset="0.3" stop-color="#c74c4d"/>
      <stop offset="0.6" stop-color="#c21975"/>
      <stop offset="1" stop-color="#7024c4"/>
    </linearGradient>
    <linearGradient id="linear-gradient-2" y1="-0.451" y2="1.462" xlink:href="#linear-gradient"/>
    <linearGradient id="linear-gradient-3" y1="-1.396" y2="6.586" xlink:href="#linear-gradient"/>
  </defs>
  <g id="Groupe_229" data-name="Groupe 229" transform="translate(1565.08 2796.795)">
    <g id="youtube_1_" data-name="youtube(1)" transform="translate(497.587 -1930.006)">
      <path id="Tracé_304" data-name="Tracé 304" d="M233.149,96.132c-6.6-11.749-13.773-13.91-28.367-14.732-14.579-.989-51.241-1.4-83-1.4-31.822,0-68.5.411-83.063,1.385-14.564.837-21.747,2.983-28.413,14.747C3.5,107.865,0,128.075,0,163.657v.122c0,35.429,3.5,55.791,10.3,67.4,6.666,11.749,13.834,13.879,28.4,14.869,14.579.852,51.256,1.354,83.078,1.354,31.761,0,68.423-.5,83.017-1.339,14.595-.989,21.763-3.12,28.367-14.869,6.864-11.612,10.333-31.974,10.333-67.4v-.122C243.5,128.075,240.027,107.865,233.149,96.132Z" transform="translate(0 -80)" fill="#f44336"/>
      <path id="Tracé_305" data-name="Tracé 305" d="M192,251.311V160l76.093,45.656Z" transform="translate(-100.689 -121.954)" fill="#fafafa"/>
    </g>
    <g id="instagram" transform="translate(-1207.128 -2796.795)">
      <path id="Tracé_301" data-name="Tracé 301" d="M155.552,0H66A66.077,66.077,0,0,0,0,66v89.55a66.077,66.077,0,0,0,66,66h89.55a66.077,66.077,0,0,0,66-66V66A66.077,66.077,0,0,0,155.552,0Zm43.714,155.552a43.714,43.714,0,0,1-43.714,43.714H66a43.714,43.714,0,0,1-43.714-43.714V66A43.714,43.714,0,0,1,66,22.288h89.55A43.714,43.714,0,0,1,199.266,66v89.55Z" fill="url(#linear-gradient)"/>
      <path id="Tracé_302" data-name="Tracé 302" d="M190.3,133a57.3,57.3,0,1,0,57.3,57.3A57.367,57.367,0,0,0,190.3,133Zm0,92.315A35.013,35.013,0,1,1,225.315,190.3,35.013,35.013,0,0,1,190.3,225.315Z" transform="translate(-79.525 -79.525)" fill="url(#linear-gradient-2)"/>
      <ellipse id="Ellipse_9" data-name="Ellipse 9" cx="13.731" cy="13.731" rx="13.731" ry="13.731" transform="translate(154.459 40.175)" fill="url(#linear-gradient-3)"/>
    </g>
    <path id="logo" d="M101.691,0A101.691,101.691,0,1,0,203.383,101.691,101.691,101.691,0,0,0,101.691,0Zm44.258,147.582a6.951,6.951,0,0,1-9.513,2.5c-18.274-10.68-39.385-12.4-53.881-11.955a133.66,133.66,0,0,0-27.949,3.691,6.954,6.954,0,0,1-3.687-13.41,144.794,144.794,0,0,1,30.823-4.169,135.758,135.758,0,0,1,29.694,2.15,100.222,100.222,0,0,1,32.017,11.687A6.953,6.953,0,0,1,145.949,147.582Zm12.928-26.851a8.234,8.234,0,0,1-11.268,2.956c-21.646-12.65-46.653-14.683-63.823-14.161A158.359,158.359,0,0,0,50.679,113.9a8.237,8.237,0,0,1-4.367-15.885,171.472,171.472,0,0,1,36.51-4.938A160.838,160.838,0,0,1,118,95.621a118.73,118.73,0,0,1,37.925,13.843A8.236,8.236,0,0,1,158.877,120.731Zm7.947-24.414a10.056,10.056,0,0,1-5.089-1.382C110.275,64.861,43.52,82.74,42.852,82.925a10.1,10.1,0,0,1-5.367-19.481c.771-.213,19.182-5.213,44.784-6.057a197.319,197.319,0,0,1,43.145,3.123,145.621,145.621,0,0,1,46.519,16.98,10.1,10.1,0,0,1-5.107,18.828Z" transform="translate(701.786 -2676.344)" fill="#00d95f"/>
    <g id="twitch" transform="translate(869.034 -2285.872)">
      <path id="Tracé_303" data-name="Tracé 303" d="M31.219,0,16,45.656v167.4H76.874V243.5h30.437l30.437-30.437H183.4l60.874-64.831V0ZM229.06,136.967l-42.612,45.656H132.483L99.7,206.47V182.623H46.437V15.219H229.06Z" transform="translate(-16)" fill="#673ab7"/>
      <rect id="Rectangle_62" data-name="Rectangle 62" width="15" height="61" transform="translate(105.966 60.872)" fill="#673ab7"/>
      <rect id="Rectangle_63" data-name="Rectangle 63" width="18" height="61" transform="translate(150.966 60.872)" fill="#673ab7"/>
    </g>
    <path id="twitter_1_" data-name="twitter(1)" d="M274.67,74.42a117.4,117.4,0,0,1-32.445,8.892A55.994,55.994,0,0,0,267,52.189a112.532,112.532,0,0,1-35.707,13.63,56.306,56.306,0,0,0-97.4,38.505,57.98,57.98,0,0,0,1.3,12.841,159.385,159.385,0,0,1-116.065-58.9,56.325,56.325,0,0,0,17.3,75.259,55.61,55.61,0,0,1-25.441-6.935v.618A56.569,56.569,0,0,0,56.1,182.537a56.2,56.2,0,0,1-14.763,1.854,49.79,49.79,0,0,1-10.661-.961,56.846,56.846,0,0,0,52.616,39.226,113.144,113.144,0,0,1-69.818,24.016A105.459,105.459,0,0,1,0,245.9a158.527,158.527,0,0,0,86.384,25.27c103.619,0,160.27-85.834,160.27-160.235,0-2.489-.086-4.893-.206-7.279A112.334,112.334,0,0,0,274.67,74.42Z" transform="translate(-1054.533 -2249.391)" fill="#03a9f4"/>
    <g id="facebook_1_" data-name="facebook(1)" transform="translate(1115.262 -1686.188)">
      <path id="Tracé_306" data-name="Tracé 306" d="M198.27,0H28.324A28.353,28.353,0,0,0,0,28.324V198.27a28.353,28.353,0,0,0,28.324,28.324H198.27a28.353,28.353,0,0,0,28.324-28.324V28.324A28.353,28.353,0,0,0,198.27,0Z" fill="#1976d2"/>
      <path id="Tracé_307" data-name="Tracé 307" d="M298.216,166.811H262.811V138.486c0-7.818,6.345-7.081,14.162-7.081h14.162V96H262.811a42.484,42.484,0,0,0-42.486,42.486v28.324H192v35.405h28.324v77.892h42.486V202.216h21.243Z" transform="translate(-107.027 -53.514)" fill="#fafafa"/>
    </g>
    <path id="behance" d="M106.283,111.036c4.372,6.008,6.559,13.175,6.559,21.558,0,8.614-2.186,15.564-6.616,20.8a34.742,34.742,0,0,1-10.931,8.021q10.945,3.953,16.548,12.466,5.56,8.513,5.574,20.689a40.8,40.8,0,0,1-6.385,22.513,39.155,39.155,0,0,1-10.135,11.1,39.776,39.776,0,0,1-16.172,7.094,100.854,100.854,0,0,1-20.226,1.9H0V95.979H69.176Q95.367,96.37,106.283,111.036ZM28.536,120.5v31.157H63.341q9.295,0,15.144-3.5c3.866-2.331,5.82-6.472,5.82-12.393,0-6.6-2.563-10.931-7.688-13.059q-6.645-2.193-16.925-2.2Zm0,54.524v37.657H63.3c6.211,0,11.061-.825,14.507-2.49,6.283-3.1,9.411-8.947,9.411-17.634,0-7.369-3.026-12.408-9.107-15.158-3.417-1.52-8.195-2.331-14.333-2.374ZM203.952,134.9a42.621,42.621,0,0,1,18.271,15.448,50.376,50.376,0,0,1,8.455,21.587c.753,4.778,1.042,11.713.927,20.733H154.481c.463,10.468,4.112,17.822,11.09,22.021a28.371,28.371,0,0,0,15.274,3.938q9.425,0,15.347-4.778a22.788,22.788,0,0,0,5.7-7.181h28.261q-1.129,9.273-10.25,18.879-14.225,15.2-39.829,15.216A58.1,58.1,0,0,1,142.8,227.917q-16.2-12.835-16.172-41.8,0-27.146,14.579-41.639Q155.82,130.039,179.05,130A60.485,60.485,0,0,1,203.952,134.9Zm-41.393,23.585q-5.864,5.972-7.384,16.158h47.705c-.507-7.254-2.982-12.741-7.369-16.52-4.445-3.75-9.9-5.617-16.433-5.617C172,152.516,166.468,154.514,162.559,158.481Zm-14.536-38.338h61.343V102.567H148.023v17.576Z" transform="translate(802.242 -1252.481)" fill="#1976d2"/>
    <path id="snapchat" d="M178.066,143.144c-24.282-4-35.226-28.869-35.669-29.924a1.716,1.716,0,0,0-.1-.2c-1.237-2.52-1.533-4.6-.851-6.176,1.328-3.11,6.414-4.722,9.774-5.79.976-.307,1.9-.6,2.656-.9a20.556,20.556,0,0,0,7.243-4.325,6.878,6.878,0,0,0,2.2-4.95c-.057-2.906-2.282-5.494-5.835-6.755a10.547,10.547,0,0,0-3.951-.749,8.8,8.8,0,0,0-3.678.749,20.643,20.643,0,0,1-7.572,2.157,6.951,6.951,0,0,1-2.509-.545c.068-1.135.136-2.3.216-3.508l.034-.522c.783-12.294,1.748-27.586-2.316-36.668a49.325,49.325,0,0,0-11.114-15.9A46.476,46.476,0,0,0,113.3,20.37a52.525,52.525,0,0,0-20.74-4.382h-.454c-1.124.011-2.952.034-3.122.034A52.724,52.724,0,0,0,68.222,20.4a46.217,46.217,0,0,0-13.248,8.753,49.484,49.484,0,0,0-11.068,15.87c-4.064,9.07-3.1,24.362-2.327,36.645v.023c.079,1.317.17,2.69.25,4.03a7.275,7.275,0,0,1-2.974.556,19.7,19.7,0,0,1-8.094-2.168,7.272,7.272,0,0,0-3.076-.636A10.876,10.876,0,0,0,22.246,85,7.524,7.524,0,0,0,18.4,89.913c-.238,1.271-.227,3.8,2.588,6.369a22.324,22.324,0,0,0,6.766,3.871c.772.306,1.691.59,2.656.9,3.36,1.067,8.457,2.679,9.786,5.79.67,1.578.375,3.655-.863,6.176a1.607,1.607,0,0,0-.091.2,60.113,60.113,0,0,1-9.15,14.145,51.341,51.341,0,0,1-11.034,9.74,40.606,40.606,0,0,1-15.5,6.028A4.24,4.24,0,0,0,.007,147.56a5.378,5.378,0,0,0,.443,1.85v.011c.874,2.032,2.883,3.746,6.153,5.256,4,1.85,9.967,3.406,17.766,4.62a21.552,21.552,0,0,1,1.09,3.905c.3,1.362.6,2.77,1.044,4.257A4.654,4.654,0,0,0,31.373,171a23.711,23.711,0,0,0,4.178-.579,47.507,47.507,0,0,1,9.524-1.078,41.393,41.393,0,0,1,6.811.579c4.45.738,8.287,3.44,12.726,6.573,6.493,4.586,13.85,9.774,25.088,9.774q.46,0,.92-.034c.363.023.829.034,1.306.034,11.239,0,18.595-5.188,25.088-9.763l.011-.011c4.439-3.122,8.276-5.824,12.726-6.562a41.389,41.389,0,0,1,6.811-.579,47.732,47.732,0,0,1,9.524,1.01,23.016,23.016,0,0,0,4.178.511h.2a4.6,4.6,0,0,0,4.666-3.485c.431-1.464.738-2.827,1.044-4.223a22.294,22.294,0,0,1,1.078-3.882c7.8-1.226,13.77-2.77,17.766-4.62,3.258-1.51,5.267-3.224,6.142-5.245a5.4,5.4,0,0,0,.454-1.873A4.225,4.225,0,0,0,178.066,143.144Z" transform="translate(-1565.08 -2471.385)" fill="#ffd93b"/>
    <g id="soundcloud" transform="translate(-1024.509 -1337.038)">
      <path id="Tracé_308" data-name="Tracé 308" d="M344.532,176.387a40.067,40.067,0,0,0-8.386.885A72.565,72.565,0,0,0,264.048,112,8.051,8.051,0,0,0,256,120.048V248.822a8.051,8.051,0,0,0,8.048,8.048h80.483a40.242,40.242,0,1,0,0-80.483Z" transform="translate(-127.227 -112)" fill="#ff9800"/>
      <path id="Tracé_309" data-name="Tracé 309" d="M200.048,144A8.051,8.051,0,0,0,192,152.048V264.725a8.048,8.048,0,0,0,16.1,0V152.048A8.051,8.051,0,0,0,200.048,144Z" transform="translate(-95.42 -127.903)" fill="#ff9800"/>
      <path id="Tracé_310" data-name="Tracé 310" d="M136.048,208A8.051,8.051,0,0,0,128,216.048v80.483a8.048,8.048,0,1,0,16.1,0V216.048A8.051,8.051,0,0,0,136.048,208Z" transform="translate(-63.613 -159.71)" fill="#ff9800"/>
      <path id="Tracé_311" data-name="Tracé 311" d="M72.048,208A8.051,8.051,0,0,0,64,216.048v80.483a8.048,8.048,0,1,0,16.1,0V216.048A8.051,8.051,0,0,0,72.048,208Z" transform="translate(-31.807 -159.71)" fill="#ff9800"/>
      <path id="Tracé_312" data-name="Tracé 312" d="M8.048,256A8.051,8.051,0,0,0,0,264.048v48.29a8.048,8.048,0,1,0,16.1,0v-48.29A8.051,8.051,0,0,0,8.048,256Z" transform="translate(0 -183.565)" fill="#ff9800"/>
    </g>
  </g>
</svg>
