<svg xmlns="http://www.w3.org/2000/svg" xmlns:xlink="http://www.w3.org/1999/xlink" width="80.938" height="39.574" viewBox="0 0 80.938 39.574">
  <defs>
    <linearGradient id="linear-gradient" x1="0.5" x2="0.5" y2="1" gradientUnits="objectBoundingBox">
      <stop offset="0" stop-color="#a82dec"/>
      <stop offset="1" stop-color="#0eddb2"/>
    </linearGradient>
  </defs>
  <g id="unlimited" transform="translate(0 -130.833)">
    <path id="Tracé_337" data-name="Tracé 337" d="M61.152,170.407a19.787,19.787,0,0,0,0-39.574c-4.649,0-10.213,2.722-17.008,8.322l-.1.082,8.2,8.237c6.271-5.016,8.8-5.076,8.907-5.076a8.222,8.222,0,0,1,0,16.443c-.113,0-2.837-.064-9.654-5.682-.788-.65-13.583-13.081-14.7-14-6.8-5.6-12.359-8.322-17.008-8.322a19.787,19.787,0,0,0,0,39.573c4.649,0,10.213-2.722,17.008-8.322l.092-.076-8.174-8.259c-6.283,5.03-8.818,5.092-8.926,5.092a8.222,8.222,0,1,1,0-16.443c.112,0,3.124-.295,9.565,5.609,3.286,3.012,13.973,13.448,14.792,14.077,6.983,5.365,12.359,8.322,17.009,8.322Z" fill="url(#linear-gradient)"/>
  </g>
</svg>
