<svg xmlns="http://www.w3.org/2000/svg" xmlns:xlink="http://www.w3.org/1999/xlink" width="47.807" height="65.975" viewBox="0 0 47.807 65.975">
  <defs>
    <linearGradient id="linear-gradient" x1="0.5" x2="0.5" y2="1" gradientUnits="objectBoundingBox">
      <stop offset="0" stop-color="#a82dec"/>
      <stop offset="1" stop-color="#0eddb2"/>
    </linearGradient>
  </defs>
  <g id="user" transform="translate(-85.6 -43.341)">
    <path id="Tracé_339" data-name="Tracé 339" d="M130.581,97.333a52.79,52.79,0,0,0-8.846-5.353,9.131,9.131,0,0,1-5.211-9.57.975.975,0,0,1,.028-.185s8.306-5.623,7.156-11.1a5.465,5.465,0,0,0,.639-.014c3.663-.341,3.89-5.793.27-6.375-.028,0-.071-.014-.1-.014l-.114-.6c1.107-3.876,3.805-15.619-4.359-14.483,0,0-5.864-9.7-18.259-5.026s-9.172,15.775-9.172,15.775l1.533,4.43c-3.337.824-3.024,5.978.525,6.3a5.717,5.717,0,0,0,.653.014c-1.164,5.481,7.142,11.1,7.142,11.1.014.071.014.128.028.185a9.17,9.17,0,0,1-5.211,9.57,53.15,53.15,0,0,0-8.846,5.353,11.407,11.407,0,0,0-2.84,2.939,36.109,36.109,0,0,0,47.807-.028A11.288,11.288,0,0,0,130.581,97.333Z" fill="url(#linear-gradient)"/>
  </g>
</svg>
