<svg xmlns="http://www.w3.org/2000/svg" xmlns:xlink="http://www.w3.org/1999/xlink" width="62.596" height="67.174" viewBox="0 0 62.596 67.174">
  <defs>
    <linearGradient id="linear-gradient" x1="0.5" x2="0.5" y2="1" gradientUnits="objectBoundingBox">
      <stop offset="0" stop-color="#a82dec"/>
      <stop offset="1" stop-color="#0eddb2"/>
    </linearGradient>
  </defs>
  <g id="www" transform="translate(-1.091 0)">
    <g id="Groupe_199" data-name="Groupe 199" transform="translate(1.09)">
      <path id="Union_2" data-name="Union 2" d="M-3488.295-2349.718h5.64a28.648,28.648,0,0,0,4.57,5.773,33.355,33.355,0,0,1,2.856-1.969,39.991,39.991,0,0,1-1.344-3.8h4.044c.233.671.451,1.36.717,2a32.808,32.808,0,0,1,5.832-2h15.681a32.376,32.376,0,0,1,5.906,2.039c.262-.654.487-1.35.716-2.039h3.97c-.4,1.32-.849,2.6-1.346,3.8a33.968,33.968,0,0,1,2.856,1.976,28.884,28.884,0,0,0,4.576-5.777h5.643a33.607,33.607,0,0,1-30.159,18.893A33.6,33.6,0,0,1-3488.295-2349.718Zm26.928,2.922c.814,5.711,1.923,9.471,2.842,10.976.129,0,.252.017.383.017s.254-.012.383-.017c.919-1.5,2.019-5.265,2.839-10.976a27.428,27.428,0,0,0-3.224-.208A27.413,27.413,0,0,0-3461.367-2346.8Zm7.887,10.447c2.9-1.462,5.471-4.246,7.5-7.958a29.488,29.488,0,0,0-5.24-1.849A46.24,46.24,0,0,1-3453.48-2336.349Zm-16.735-8a19.218,19.218,0,0,0,7.385,7.95,46.738,46.738,0,0,1-2.236-9.75A29.63,29.63,0,0,0-3470.215-2344.346Zm-4.95,2.874a28.1,28.1,0,0,0,3.76,2.387,30,30,0,0,1-2.188-3.453C-3474.128-2342.207-3474.648-2341.842-3475.165-2341.472Zm30.281,2.385a27.845,27.845,0,0,0,3.759-2.385c-.517-.37-1.035-.734-1.574-1.071A29.409,29.409,0,0,1-3444.883-2339.087Zm-32.418-18.65-1.256-4.693c-.327-1.308-.573-2.513-.846-4.151h-.055a30.956,30.956,0,0,1-.873,4.151l-1.337,4.693v0h-3.9l-3.875-13.345h4.232l1.064,5.46c.274,1.391.546,2.866.764,4.4h.055c.273-1.526.655-3.058.983-4.366l1.418-5.484h3.275l1.337,5.32c.354,1.5.709,3,.982,4.53h.055c.191-1.528.464-3.027.764-4.558l1.147-5.292h4.063l-4.093,13.341Zm42.458-.006-1.256-4.692c-.328-1.31-.573-2.515-.844-4.152h-.05a31.687,31.687,0,0,1-.873,4.152l-1.344,4.692h-3.9l-3.882-13.344h4.235l1.066,5.459c.273,1.392.544,2.867.762,4.4h.05c.274-1.528.659-3.059.984-4.369l1.422-5.483h3.279l1.337,5.319c.355,1.5.714,3,.985,4.532h.052c.189-1.531.46-3.029.762-4.559l1.136-5.3h4.068l-4.091,13.344Zm-21.229,0-1.256-4.692c-.328-1.31-.575-2.515-.848-4.152h-.055a31.41,31.41,0,0,1-.873,4.152l-1.337,4.692h-3.9l-3.875-13.344h4.23l1.065,5.459c.273,1.392.545,2.867.764,4.4h.055c.273-1.528.654-3.059.982-4.369l1.419-5.483h3.274l1.344,5.319c.353,1.5.71,3,.98,4.532h.057c.189-1.531.456-3.029.76-4.559l1.137-5.3h4.068l-4.087,13.344Zm22.449-21.363a28.8,28.8,0,0,0-4.574-5.775,31.4,31.4,0,0,1-2.855,1.971,39.012,39.012,0,0,1,1.345,3.8h-3.97c-.24-.688-.457-1.389-.72-2.04a31.834,31.834,0,0,1-5.9,2.04h-15.682a32.576,32.576,0,0,1-5.834-2.005c-.263.643-.483,1.329-.715,2.005h-4.045c.4-1.318.844-2.595,1.345-3.8a33.186,33.186,0,0,1-2.857-1.971,28.726,28.726,0,0,0-4.576,5.775h-5.638A33.6,33.6,0,0,1-3458.142-2398a33.608,33.608,0,0,1,30.162,18.893Zm-24.9-13.9c-.92,1.506-2.026,5.263-2.839,10.977a27.385,27.385,0,0,0,3.222.206,27.523,27.523,0,0,0,3.223-.206c-.816-5.714-1.923-9.472-2.842-10.977-.129,0-.252-.016-.383-.016S-3458.4-2393.008-3458.524-2393.006Zm-11.687,8.532a29.314,29.314,0,0,0,5.149,1.805,46.656,46.656,0,0,1,2.237-9.752A19.073,19.073,0,0,0-3470.21-2384.474Zm18.987,1.8a29.221,29.221,0,0,0,5.24-1.847c-2.026-3.71-4.6-6.493-7.5-7.96A46.262,46.262,0,0,1-3451.223-2382.672Zm8.525-3.611c.539-.336,1.057-.7,1.574-1.068a27.808,27.808,0,0,0-3.759-2.387A28.59,28.59,0,0,1-3442.7-2386.282Zm-32.467-1.067c.517.37,1.035.734,1.573,1.067a30.141,30.141,0,0,1,2.188-3.455A27.768,27.768,0,0,0-3475.165-2387.349Z" transform="translate(3489.446 2398)" fill="url(#linear-gradient)"/>
    </g>
  </g>
</svg>
